<svg width="524" height="293" viewBox="0 0 524 293" fill="none" xmlns="http://www.w3.org/2000/svg">
<path d="M395.694 68.7409C384.378 94.5589 339.856 183.002 257.673 193.189C197.348 200.671 160.207 108.409 225.186 90.6417C264.42 79.9066 286.016 111.954 286.437 130.382C286.834 147.59 273.056 165.088 250.817 175.478C195.261 201.446 150.864 144.308 99.5104 177.335C79.7479 190.84 40.7983 232.372 43.1005 290.464" stroke="#E7E7E7" stroke-width="4" stroke-miterlimit="10" stroke-dasharray="11.94 11.94"/>
<path d="M419.038 32.1153L517.485 18.0774C517.954 18.0038 517.904 17.344 517.445 17.3093L428.113 13.7319C427.71 13.7151 427.344 13.9329 427.133 14.2865L417.963 30.5219C417.526 31.3116 418.179 32.2503 419.038 32.1153Z" fill="white" stroke="#C8D1FF" stroke-width="5" stroke-miterlimit="10"/>
<path d="M433.816 63.7838L417.618 33.7799C417.274 33.113 417.68 32.3013 418.413 32.2128L517.38 18.0931C518.239 17.9581 518.608 19.1284 517.846 19.5419L435.245 64.2268C434.727 64.4951 434.084 64.3025 433.816 63.7838Z" fill="white" stroke="#C8D1FF" stroke-width="5" stroke-miterlimit="10"/>
<path d="M401.181 61.7053L517.523 19.0051C517.901 18.8656 517.733 18.3044 517.347 18.3919L412.651 40.2216C412.521 40.242 412.425 40.3105 412.363 40.427L400.685 61.089C400.5 61.4386 400.829 61.8408 401.181 61.7053Z" fill="white" stroke="#C8D1FF" stroke-width="5" stroke-miterlimit="10" stroke-linejoin="round"/>
</svg>
