<svg width="354" height="338" viewBox="0 0 354 338" fill="none" xmlns="http://www.w3.org/2000/svg">
<path d="M346.487 154.66L319.244 133.383C316.689 131.388 314.768 128.796 313.594 125.887L288.084 152.497C288.886 157.886 289.296 163.387 289.296 169C289.296 231.17 238.911 281.555 176.74 281.555C114.57 281.555 64.1847 231.17 64.1847 169C64.1847 106.83 114.57 56.4444 176.74 56.4444C210.306 56.4444 240.44 71.1383 261.027 94.4284L296.624 57.3203L271.096 56.4444C263.656 56.183 257.129 51.4465 254.612 44.4537L242.845 12.0074C238.799 0.856314 225.354 -3.50686 215.546 3.13082L186.94 22.4874C180.768 26.6458 172.713 26.6458 166.54 22.4874L137.935 3.13102C128.126 -3.50666 114.682 0.856508 110.654 12.0076L98.8686 44.4539C96.3514 51.4467 89.8248 56.1832 82.403 56.4446L47.8495 57.6191C36.027 58.0298 27.7288 69.4413 30.9922 80.8164L40.521 114.028C42.5722 121.17 40.0735 128.815 34.237 133.383L6.99283 154.66C-2.33094 161.951 -2.33094 176.048 6.99283 183.34L34.237 204.617C40.0737 209.167 42.5722 216.83 40.521 223.973L30.9922 257.184C27.7288 268.559 36.027 279.97 47.8495 280.381L82.3845 281.556C89.8248 281.817 96.3514 286.554 98.8684 293.546L110.635 325.993C114.681 337.144 128.126 341.507 137.935 334.869L166.54 315.513C172.712 311.354 180.768 311.354 186.94 315.513L215.545 334.869C225.354 341.507 238.799 337.144 242.826 325.993L254.611 293.546C257.129 286.554 263.656 281.817 271.077 281.556L305.631 280.381C317.453 279.97 325.751 268.559 322.488 257.184L312.959 223.973C310.908 216.831 313.407 209.167 319.243 204.617L346.487 183.34C355.811 176.048 355.811 161.951 346.487 154.66Z" fill="#5A4A42"/>
<path d="M346.433 79.1748C346.433 80.2373 346.023 81.2817 345.24 82.1021L319.711 108.749L312.457 116.32L286.388 143.508L194.196 239.635C192.517 241.388 189.72 241.388 188.042 239.617L105.173 151.601C103.625 149.96 103.644 147.387 105.21 145.745L107.317 143.564L130.999 118.819C132.678 117.048 135.493 117.066 137.153 118.838L188.937 173.941C190.615 175.713 193.412 175.731 195.109 173.978L265.82 100.209L302.033 62.4478L306.602 57.674L314.08 49.8798C315.758 48.1271 318.555 48.1271 320.233 49.8798L345.239 76.2285C346.023 77.0679 346.433 78.1112 346.433 79.1748Z" fill="#4E69B1"/>
</svg>
