<svg width="21" height="29" viewBox="0 0 21 29" fill="none" xmlns="http://www.w3.org/2000/svg">
<path d="M6.375 26.875C6.375 27.6313 6.99375 28.25 7.75 28.25H13.25C14.0063 28.25 14.625 27.6313 14.625 26.875V25.5H6.375V26.875ZM10.5 0.75C5.1925 0.75 0.875 5.0675 0.875 10.375C0.875 13.6475 2.51125 16.5212 5 18.2675V21.375C5 22.1313 5.61875 22.75 6.375 22.75H14.625C15.3813 22.75 16 22.1313 16 21.375V18.2675C18.4888 16.5212 20.125 13.6475 20.125 10.375C20.125 5.0675 15.8075 0.75 10.5 0.75ZM13.25 16.8375V20H7.75V16.8375C5.66 15.3663 3.625 13.8538 3.625 10.375C3.625 6.58 6.705 3.5 10.5 3.5C14.295 3.5 17.375 6.58 17.375 10.375C17.375 13.7987 15.2987 15.3938 13.25 16.8375Z" fill="#231F20"/>
</svg>
