<svg width="28" height="28" viewBox="0 0 28 28" fill="none" xmlns="http://www.w3.org/2000/svg">
<path d="M18.889 2.3335H9.11232C4.86565 2.3335 2.33398 4.86516 2.33398 9.11183V18.8768C2.33398 23.1352 4.86565 25.6668 9.11232 25.6668H18.8773C23.124 25.6668 25.6556 23.1352 25.6556 18.8885V9.11183C25.6673 4.86516 23.1357 2.3335 18.889 2.3335ZM10.629 19.7168C10.629 20.0435 10.3723 20.3002 10.0457 20.3002H6.79065C6.46398 20.3002 6.20732 20.0435 6.20732 19.7168V14.3268C6.20732 13.5918 6.80232 12.9968 7.53732 12.9968H10.0457C10.3723 12.9968 10.629 13.2535 10.629 13.5802V19.7168ZM16.2057 19.7168C16.2057 20.0435 15.949 20.3002 15.6223 20.3002H12.3673C12.0407 20.3002 11.784 20.0435 11.784 19.7168V9.03016C11.784 8.29516 12.379 7.70016 13.114 7.70016H14.8873C15.6223 7.70016 16.2173 8.29516 16.2173 9.03016V19.7168H16.2057ZM21.794 19.7168C21.794 20.0435 21.5373 20.3002 21.2107 20.3002H17.9557C17.629 20.3002 17.3723 20.0435 17.3723 19.7168V15.5752C17.3723 15.2485 17.629 14.9918 17.9557 14.9918H20.464C21.199 14.9918 21.794 15.5868 21.794 16.3218V19.7168Z" fill="#231F20"/>
</svg>
