<svg width="20" height="20" viewBox="0 0 20 20" fill="none" xmlns="http://www.w3.org/2000/svg">
<g clip-path="url(#clip0_1_555)">
<path d="M5 8.75C5.33152 8.75 5.64946 8.8817 5.88388 9.11612C6.1183 9.35054 6.25 9.66848 6.25 10C6.25 10.3315 6.1183 10.6495 5.88388 10.8839C5.64946 11.1183 5.33152 11.25 5 11.25C4.66848 11.25 4.35054 11.1183 4.11612 10.8839C3.8817 10.6495 3.75 10.3315 3.75 10C3.75 9.66848 3.8817 9.35054 4.11612 9.11612C4.35054 8.8817 4.66848 8.75 5 8.75ZM10 8.75C10.3315 8.75 10.6495 8.8817 10.8839 9.11612C11.1183 9.35054 11.25 9.66848 11.25 10C11.25 10.3315 11.1183 10.6495 10.8839 10.8839C10.6495 11.1183 10.3315 11.25 10 11.25C9.66848 11.25 9.35054 11.1183 9.11612 10.8839C8.8817 10.6495 8.75 10.3315 8.75 10C8.75 9.66848 8.8817 9.35054 9.11612 9.11612C9.35054 8.8817 9.66848 8.75 10 8.75ZM15 8.75C15.3315 8.75 15.6495 8.8817 15.8839 9.11612C16.1183 9.35054 16.25 9.66848 16.25 10C16.25 10.3315 16.1183 10.6495 15.8839 10.8839C15.6495 11.1183 15.3315 11.25 15 11.25C14.6685 11.25 14.3505 11.1183 14.1161 10.8839C13.8817 10.6495 13.75 10.3315 13.75 10C13.75 9.66848 13.8817 9.35054 14.1161 9.11612C14.3505 8.8817 14.6685 8.75 15 8.75Z" fill="black"/>
</g>
<defs>
<clipPath id="clip0_1_555">
<rect width="20" height="20" fill="white"/>
</clipPath>
</defs>
</svg>
