<svg width="17" height="16" viewBox="0 0 17 16" fill="none" xmlns="http://www.w3.org/2000/svg">
	<path d="M11.7285 3.00652L13.4927 4.77069M12.8627 1.45236L8.09018 6.22486C7.84359 6.4711 7.67541 6.78484 7.60685 7.12652L7.16602 9.33319L9.37268 8.89152C9.71435 8.82319 10.0277 8.65569 10.2743 8.40902L15.0468 3.63652C15.1903 3.49311 15.304 3.32285 15.3816 3.13547C15.4593 2.94809 15.4992 2.74726 15.4992 2.54444C15.4992 2.34162 15.4593 2.14079 15.3816 1.95341C15.304 1.76603 15.1903 1.59577 15.0468 1.45236C14.9034 1.30894 14.7332 1.19518 14.5458 1.11756C14.3584 1.03995 14.1576 1 13.9548 1C13.7519 1 13.5511 1.03995 13.3637 1.11756C13.1764 1.19518 13.0061 1.30894 12.8627 1.45236Z" stroke="#1E3A8A" stroke-width="1.5" stroke-linecap="round" stroke-linejoin="round" />
	<path d="M13.833 10.9998V13.4998C13.833 13.9419 13.6574 14.3658 13.3449 14.6783C13.0323 14.9909 12.6084 15.1665 12.1663 15.1665H2.99967C2.55765 15.1665 2.13372 14.9909 1.82116 14.6783C1.5086 14.3658 1.33301 13.9419 1.33301 13.4998V4.33317C1.33301 3.89114 1.5086 3.46722 1.82116 3.15466C2.13372 2.8421 2.55765 2.6665 2.99967 2.6665H5.49967" stroke="#1E3A8A" stroke-width="1.5" stroke-linecap="round" stroke-linejoin="round" />
</svg>
