<svg width="23" height="32" viewBox="0 0 23 32" fill="none" xmlns="http://www.w3.org/2000/svg">
<path fill-rule="evenodd" clip-rule="evenodd" d="M18.35 27.45H0.150024C0.150024 30 2.20002 32 4.70002 32H18.3C20.8 32 22.85 29.95 22.85 27.45V8.65C22.85 8.55 22.8 8.5 22.7 8.5H18.5C18.4 8.5 18.35 8.55 18.35 8.65V27.45ZM18.35 0C20.85 0 22.9 2.05 22.9 4.6H4.70002V23.4C4.70002 23.5 4.60002 23.55 4.55002 23.55H0.300025C0.200025 23.55 0.150024 23.45 0.150024 23.4V4.6C0.150024 2.05 2.20002 0 4.70002 0H18.35Z" fill="#231F20"/>
</svg>
