<svg width="28" height="28" viewBox="0 0 28 28" fill="none" xmlns="http://www.w3.org/2000/svg">
<path d="M25.6667 9.94001V4.64334C25.6667 2.99834 24.92 2.33334 23.065 2.33334H18.3517C16.4967 2.33334 15.75 2.99834 15.75 4.64334V9.92834C15.75 11.585 16.4967 12.2383 18.3517 12.2383H23.065C24.92 12.25 25.6667 11.585 25.6667 9.94001Z" fill="#231F20"/>
<path d="M25.6667 23.065V18.3517C25.6667 16.4967 24.92 15.75 23.065 15.75H18.3517C16.4967 15.75 15.75 16.4967 15.75 18.3517V23.065C15.75 24.92 16.4967 25.6667 18.3517 25.6667H23.065C24.92 25.6667 25.6667 24.92 25.6667 23.065Z" fill="#231F20"/>
<path d="M12.2506 9.94001V4.64334C12.2506 2.99834 11.504 2.33334 9.64898 2.33334H4.93565C3.08065 2.33334 2.33398 2.99834 2.33398 4.64334V9.92834C2.33398 11.585 3.08065 12.2383 4.93565 12.2383H9.64898C11.504 12.25 12.2506 11.585 12.2506 9.94001Z" fill="#231F20"/>
<path d="M12.2506 23.065V18.3517C12.2506 16.4967 11.504 15.75 9.64898 15.75H4.93565C3.08065 15.75 2.33398 16.4967 2.33398 18.3517V23.065C2.33398 24.92 3.08065 25.6667 4.93565 25.6667H9.64898C11.504 25.6667 12.2506 24.92 12.2506 23.065Z" fill="#231F20"/>
</svg>
