<svg width="24" height="24" viewBox="0 0 24 24" fill="none" xmlns="http://www.w3.org/2000/svg">
<path d="M23.9774 7.05607C23.9211 5.78082 23.7149 4.90418 23.4195 4.14447C23.1147 3.33811 22.6459 2.61618 22.0317 2.01602C21.4315 1.40652 20.7048 0.932901 19.9077 0.632936C19.1437 0.337566 18.2716 0.131276 16.9964 0.0751084C15.7116 0.0140652 15.3038 0 12.0453 0C8.78686 0 8.37902 0.0140652 7.09903 0.0703262C5.82383 0.126587 4.94715 0.332971 4.18767 0.628154C3.38107 0.932901 2.65915 1.40174 2.05899 2.01602C1.44949 2.61614 0.976104 3.34284 0.675905 4.13987C0.380535 4.90418 0.174291 5.77613 0.118077 7.05128C0.0570809 8.33605 0.0429688 8.7439 0.0429688 12.0023C0.0429688 15.2608 0.0570809 15.6687 0.113295 16.9486C0.169556 18.2239 0.37594 19.1005 0.671357 19.8602C0.976104 20.6666 1.44949 21.3885 2.05899 21.9887C2.65915 22.5982 3.38586 23.0718 4.18289 23.3718C4.9471 23.6671 5.81905 23.8734 7.09449 23.9296C8.37424 23.986 8.78232 23.9999 12.0408 23.9999C15.2992 23.9999 15.7071 23.986 16.987 23.9296C18.2622 23.8734 19.1389 23.6672 19.8984 23.3718C20.6961 23.0633 21.4205 22.5917 22.0252 21.987C22.63 21.3823 23.1017 20.6579 23.4102 19.8602C23.7054 19.096 23.9118 18.2238 23.968 16.9486C24.0243 15.6687 24.0383 15.2608 24.0383 12.0023C24.0383 8.7439 24.0335 8.336 23.9774 7.05607ZM21.8161 16.8549C21.7644 18.027 21.5676 18.6599 21.4035 19.0819C21.0002 20.1274 20.1704 20.9572 19.1248 21.3605C18.7029 21.5246 18.0654 21.7215 16.8978 21.7729C15.632 21.8294 15.2523 21.8432 12.0501 21.8432C8.84786 21.8432 8.46346 21.8294 7.20213 21.7729C6.03003 21.7215 5.39709 21.5246 4.97514 21.3605C4.45486 21.1682 3.98128 20.8634 3.59683 20.4649C3.19832 20.0758 2.89357 19.607 2.70125 19.0866C2.53716 18.6647 2.34029 18.027 2.28886 16.8596C2.23241 15.5938 2.21853 15.2139 2.21853 12.0117C2.21853 8.80944 2.23241 8.42504 2.28886 7.16395C2.34029 5.99184 2.53716 5.35891 2.70125 4.93695C2.89357 4.41644 3.19832 3.94296 3.60162 3.55841C3.99057 3.1599 4.45941 2.85515 4.97992 2.66307C5.40188 2.49897 6.03959 2.30206 7.20691 2.25044C8.47279 2.19418 8.85264 2.18011 12.0546 2.18011C15.2617 2.18011 15.6413 2.19418 16.9026 2.25044C18.0747 2.30211 18.7076 2.49893 19.1296 2.66302C19.6499 2.85515 20.1235 3.1599 20.5079 3.55841C20.9064 3.9476 21.2112 4.41644 21.4035 4.93695C21.5676 5.35891 21.7644 5.99639 21.8161 7.16395C21.8723 8.42982 21.8864 8.80944 21.8864 12.0117C21.8864 15.2139 21.8724 15.589 21.8161 16.8549Z" fill="black"/>
<path d="M12.0442 5.83707C8.64048 5.83707 5.87891 8.59845 5.87891 12.0023C5.87891 15.4062 8.64048 18.1676 12.0442 18.1676C15.448 18.1676 18.2094 15.4062 18.2094 12.0023C18.2094 8.59845 15.448 5.83707 12.0442 5.83707ZM12.0442 16.0016C9.83602 16.0016 8.04486 14.2107 8.04486 12.0023C8.04486 9.794 9.83602 8.00312 12.0441 8.00312C14.2525 8.00312 16.0434 9.794 16.0434 12.0023C16.0434 14.2107 14.2524 16.0016 12.0442 16.0016ZM19.8927 5.59327C19.8927 6.38815 19.2482 7.03262 18.4531 7.03262C17.6583 7.03262 17.0138 6.38815 17.0138 5.59327C17.0138 4.7983 17.6583 4.15402 18.4532 4.15402C19.2482 4.15402 19.8927 4.79826 19.8927 5.59327Z" fill="black"/>
</svg>
