<svg width="33" height="32" viewBox="0 0 33 32" fill="none" xmlns="http://www.w3.org/2000/svg">
<g clip-path="url(#clip0_3_10511)">
<path d="M23.8378 0H9.16211C4.38574 0 0.5 3.88574 0.5 8.66211V23.3381C0.5 28.1142 4.38574 31.9999 9.16211 31.9999H23.8381C28.6142 31.9999 32.4999 28.1142 32.4999 23.3381V8.66211C32.4999 3.88574 28.6142 0 23.8378 0ZM30.6239 23.3381C30.6239 27.0798 27.5798 30.1239 23.8378 30.1239H9.16211C5.42018 30.1239 2.376 27.0798 2.376 23.3381V8.66211C2.376 4.92018 5.42018 1.876 9.16211 1.876H23.8381C27.5798 1.876 30.6239 4.92018 30.6239 8.66211V23.3381Z" fill="#231F20"/>
<path d="M16.5 7.25026C11.6753 7.25026 7.75024 11.1753 7.75024 16C7.75024 20.8248 11.6752 24.7498 16.5 24.7498C21.3247 24.7498 25.2497 20.8248 25.2497 16C25.2497 11.1753 21.3247 7.25026 16.5 7.25026ZM16.5 22.8738C12.71 22.8738 9.62624 19.7903 9.62624 16C9.62624 12.21 12.71 9.12626 16.5 9.12626C20.2903 9.12626 23.3737 12.21 23.3737 16C23.3737 19.7903 20.2903 22.8738 16.5 22.8738ZM25.459 4.14282C24.0332 4.14282 22.8736 5.30276 22.8736 6.72826C22.8736 8.15407 24.0332 9.31395 25.459 9.31395C26.8848 9.31395 28.0446 8.15407 28.0446 6.72832C28.0446 5.30257 26.8847 4.14282 25.459 4.14282ZM25.459 7.43776C25.0679 7.43776 24.7495 7.11938 24.7495 6.72826C24.7495 6.33695 25.0679 6.01882 25.459 6.01882C25.8503 6.01882 26.1687 6.33695 26.1687 6.72826C26.1687 7.11938 25.8503 7.43776 25.459 7.43776Z" fill="#231F20"/>
</g>
<defs>
<clipPath id="clip0_3_10511">
<rect width="32" height="32" fill="white" transform="translate(0.5)"/>
</clipPath>
</defs>
</svg>
