<svg width="33" height="32" viewBox="0 0 33 32" fill="none" xmlns="http://www.w3.org/2000/svg">
<path d="M29.2999 28.8V19.424C29.2999 14.816 28.3079 11.296 22.9319 11.296C20.34 11.296 18.612 12.704 17.908 14.048H17.844V11.712H12.756V28.8H18.068V20.32C18.068 18.08 18.484 15.936 21.236 15.936C23.956 15.936 23.988 18.464 23.988 20.448V28.768H29.2999V28.8ZM4.11595 11.712H9.42795V28.8H4.11595V11.712ZM6.77195 3.20001C5.07595 3.20001 3.69995 4.57601 3.69995 6.27201C3.69995 7.96801 5.07595 9.37601 6.77195 9.37601C8.46795 9.37601 9.84395 7.96801 9.84395 6.27201C9.84395 4.57601 8.46795 3.20001 6.77195 3.20001Z" fill="#231F20"/>
</svg>
