<svg width="25" height="25" viewBox="0 0 25 25" fill="none" xmlns="http://www.w3.org/2000/svg">
<path d="M11.4414 25C9.28839 25 7.53516 23.2479 7.53516 21.0938C7.53516 20.6625 7.88515 20.3125 8.31641 20.3125C8.74766 20.3125 9.09766 20.6625 9.09766 21.0938C9.09766 22.3866 10.1497 23.4375 11.4414 23.4375C12.7331 23.4375 13.7852 22.3866 13.7852 21.0938C13.7852 20.6625 14.1352 20.3125 14.5664 20.3125C14.9977 20.3125 15.3477 20.6625 15.3477 21.0938C15.3477 23.2479 13.5946 25 11.4414 25V25Z" fill="#1E3A8A"/>
<path d="M20.0338 21.875H2.84629C1.84112 21.875 1.02344 21.0573 1.02344 20.0521C1.02344 19.5187 1.25575 19.0136 1.66087 18.6666C1.687 18.6438 1.71504 18.623 1.74422 18.6041C3.27335 17.2697 4.14844 15.35 4.14844 13.3228V10.4166C4.14844 6.39591 7.4203 3.125 11.44 3.125C11.6067 3.125 11.787 3.12805 11.9537 3.15628C12.3796 3.22704 12.6672 3.63026 12.5963 4.05521C12.5255 4.48017 12.1151 4.7678 11.6973 4.69685C11.614 4.6833 11.5224 4.6875 11.44 4.6875C8.28185 4.6875 5.71094 7.25727 5.71094 10.4166V13.3228C5.71094 15.8396 4.60773 18.2209 2.68703 19.8551C2.67139 19.8677 2.65784 19.8792 2.64106 19.8906C2.61302 19.9261 2.58594 19.9802 2.58594 20.0521C2.58594 20.1937 2.70477 20.3125 2.84629 20.3125H20.0338C20.1755 20.3125 20.2943 20.1937 20.2943 20.0521C20.2943 19.9791 20.2673 19.9261 20.2381 19.8906C20.2224 19.8792 20.2089 19.8677 20.1932 19.8551C18.2714 18.2198 17.1693 15.8396 17.1693 13.3228V12.1876C17.1693 11.7563 17.5193 11.4063 17.9506 11.4063C18.3818 11.4063 18.7318 11.7563 18.7318 12.1876V13.3228C18.7318 15.3511 19.6079 17.2718 21.1391 18.6073C21.1671 18.626 21.1942 18.6459 21.2192 18.6678C21.6245 19.0136 21.8568 19.5187 21.8568 20.0521C21.8568 21.0573 21.0392 21.875 20.0338 21.875V21.875Z" fill="#1E3A8A"/>
<path d="M18.7318 10.4166C15.8599 10.4166 13.5234 8.08029 13.5234 5.2084C13.5234 2.3365 15.8599 0 18.7318 0C21.6037 0 23.94 2.3365 23.94 5.2084C23.94 8.08029 21.6037 10.4166 18.7318 10.4166V10.4166ZM18.7318 1.5625C16.7213 1.5625 15.0859 3.19786 15.0859 5.2084C15.0859 7.21874 16.7213 8.8541 18.7318 8.8541C20.7422 8.8541 22.3775 7.21874 22.3775 5.2084C22.3775 3.19786 20.7422 1.5625 18.7318 1.5625V1.5625Z" fill="#1E3A8A"/>
</svg>
