<svg width="26" height="28" viewBox="0 0 26 28" fill="none" xmlns="http://www.w3.org/2000/svg">
<path d="M10.166 4.08333C10.166 3.33189 10.4645 2.61122 10.9959 2.07986C11.5272 1.54851 12.2479 1.25 12.9993 1.25C13.7508 1.25 14.4715 1.54851 15.0028 2.07986C15.5342 2.61122 15.8327 3.33189 15.8327 4.08333C17.4596 4.85262 18.8465 6.05013 19.8448 7.54751C20.843 9.04489 21.415 10.7857 21.4993 12.5833V16.8333C21.606 17.7141 21.9179 18.5575 22.41 19.2957C22.9021 20.0339 23.5607 20.6462 24.3327 21.0833H1.66602C2.43801 20.6462 3.09658 20.0339 3.5887 19.2957C4.08082 18.5575 4.39274 17.7141 4.49935 16.8333V12.5833C4.58373 10.7857 5.15569 9.04489 6.15394 7.54751C7.1522 6.05013 8.5391 4.85262 10.166 4.08333Z" stroke="#0B1C33" stroke-width="2" stroke-linecap="round" stroke-linejoin="round"/>
<path d="M8.75 21.0834V22.5C8.75 23.6272 9.19777 24.7082 9.9948 25.5052C10.7918 26.3023 11.8728 26.75 13 26.75C14.1272 26.75 15.2082 26.3023 16.0052 25.5052C16.8022 24.7082 17.25 23.6272 17.25 22.5V21.0834" stroke="#0B1C33" stroke-width="2" stroke-linecap="round" stroke-linejoin="round"/>
</svg>
