<svg width="58" height="57" viewBox="0 0 58 57" fill="none" xmlns="http://www.w3.org/2000/svg">
<path d="M42.0583 28.9689H47.2419L49.6476 32.1765C49.8999 32.5129 50.2958 32.7109 50.7162 32.7109H55.3283C56.4291 32.7109 57.0574 31.4542 56.397 30.5736L54.4919 28.0334L56.397 25.4933C57.0574 24.6127 56.4291 23.356 55.3283 23.356H50.7162C50.2958 23.356 49.8999 23.554 49.6476 23.8903L47.2419 27.098H42.0583C41.6756 21.6563 37.988 17.0461 32.7419 15.4921V9.32376H34.6664C35.8141 9.32376 36.4275 7.97203 35.6717 7.10832L30.0052 0.632293C29.473 0.0240582 28.5268 0.0240575 27.9946 0.632293L22.3281 7.10832C21.5724 7.97203 22.1858 9.32376 23.3335 9.32376H25.258V10.2592C25.258 10.7759 25.6768 11.1947 26.1935 11.1947C26.7101 11.1947 27.129 10.7759 27.129 10.2592V7.4528H24.5135L28.9999 2.32545L33.4864 7.4528H30.8709V16.9506L31.5912 17.121C36.3687 18.252 39.7909 22.283 40.1865 27.098H34.5288C34.0816 24.4477 31.7762 22.4205 28.9999 22.4205C25.9043 22.4205 23.387 24.9378 23.387 28.0334C23.387 31.129 25.9043 33.6463 28.9999 33.6463C31.7753 33.6463 34.0807 31.6192 34.5288 28.9689H40.1865C39.7909 33.7838 36.3687 37.8149 31.5912 38.9459L30.8709 39.1163V49.5496H27.129V39.1163L26.4086 38.9459C21.3251 37.7427 17.7741 33.2553 17.7741 28.0334C17.7741 22.8115 21.3251 18.3241 26.4086 17.121L27.129 16.9506V14.0012C27.129 13.4845 26.7101 13.0657 26.1935 13.0657C25.6768 13.0657 25.258 13.4845 25.258 14.0012V15.4921C19.7136 17.1342 15.9032 22.1894 15.9032 28.0334C15.9032 33.8775 19.7136 38.9326 25.258 40.5743V42.1237C12.5381 42.5156 -6.10352e-05 44.9311 -6.10352e-05 49.5496C-6.10352e-05 54.4627 14.589 57.0334 28.9999 57.0334C43.4109 57.0334 57.9999 54.4627 57.9999 49.5496C57.9999 44.9311 45.4618 42.5156 32.7419 42.1246V40.5752C37.988 39.0208 41.6756 34.4105 42.0583 28.9689ZM50.9838 30.8399L49.5806 28.9689H52.8548L54.258 30.8399H50.9838ZM50.9838 25.227H54.258L52.8548 27.098H49.5806L50.9838 25.227ZM28.9999 31.7754C26.9362 31.7754 25.258 30.0972 25.258 28.0334C25.258 25.9697 26.9362 24.2915 28.9999 24.2915C30.7389 24.2915 32.191 25.4887 32.6089 27.098H29.9354C29.4188 27.098 28.9999 27.5168 28.9999 28.0334C28.9999 28.5501 29.4188 28.9689 29.9354 28.9689H32.6089C32.191 30.5777 30.7389 31.7754 28.9999 31.7754ZM56.129 49.5496C56.129 51.8928 45.8085 55.1625 28.9999 55.1625C12.1914 55.1625 1.87091 51.8928 1.87091 49.5496C1.87091 47.542 10.1984 44.4706 25.258 44.002V45.8076H17.239C16.5012 45.8076 15.9032 46.4057 15.9032 47.1434V49.5496H12.1612C11.6446 49.5496 11.2257 49.9684 11.2257 50.4851C11.2257 51.0017 11.6446 51.4205 12.1612 51.4205H17.7741V47.6786H25.258V49.5496H24.3225C23.8059 49.5496 23.387 49.9684 23.387 50.4851C23.387 51.0017 23.8059 51.4205 24.3225 51.4205H33.6774C34.194 51.4205 34.6128 51.0017 34.6128 50.4851C34.6128 49.9684 34.194 49.5496 33.6774 49.5496H32.7419V47.6786H40.2257V51.4205H45.8386C46.3553 51.4205 46.7741 51.0017 46.7741 50.4851C46.7741 49.9684 46.3553 49.5496 45.8386 49.5496H42.0967V47.1434C42.0967 46.4057 41.4986 45.8076 40.7609 45.8076H32.7419V44.002C47.8014 44.4706 56.129 47.542 56.129 49.5496Z" fill="#0A1A32"/>
</svg>
