<svg width="28" height="28" viewBox="0 0 28 28" fill="none" xmlns="http://www.w3.org/2000/svg">
<path d="M15.75 4.78334V23.2167C15.75 24.9667 16.4967 25.6667 18.3517 25.6667H23.065C24.92 25.6667 25.6667 24.9667 25.6667 23.2167V4.78334C25.6667 3.03334 24.92 2.33334 23.065 2.33334H18.3517C16.4967 2.33334 15.75 3.03334 15.75 4.78334Z" fill="#1E3A8A"/>
<path d="M2.33398 4.78334V23.2167C2.33398 24.9667 3.08065 25.6667 4.93565 25.6667H9.64898C11.504 25.6667 12.2506 24.9667 12.2506 23.2167V4.78334C12.2506 3.03334 11.504 2.33334 9.64898 2.33334H4.93565C3.08065 2.33334 2.33398 3.03334 2.33398 4.78334Z" fill="#1E3A8A"/>
</svg>
